<svg xmlns="http://www.w3.org/2000/svg" version="1.1" xmlns:xlink="http://www.w3.org/1999/xlink" xmlns:svgjs="http://svgjs.dev/svgjs" width="1500" height="1500" viewBox="0 0 1500 1500"><rect width="1500" height="1500" fill="#000000"></rect><g transform="matrix(0.6666666666666666,0,0,0.6666666666666666,249.39393939393932,593.756140718004)"><svg viewBox="0 0 396 124" data-background-color="#7902f5" preserveAspectRatio="xMidYMid meet" height="469" width="1500" xmlns="http://www.w3.org/2000/svg" xmlns:xlink="http://www.w3.org/1999/xlink"><g id="tight-bounds" transform="matrix(1,0,0,1,0.24000000000003752,-0.035484378568696684)"><svg viewBox="0 0 395.5199999999999 124.07096875713741" height="124.07096875713741" width="395.5199999999999"><g><svg viewBox="0 0 531.5174417880385 166.73210941028856" height="124.07096875713741" width="395.5199999999999"><g transform="matrix(1,0,0,1,135.99744178803846,51.52264190715181)"><svg viewBox="0 0 395.52 63.686825595984935" height="63.686825595984935" width="395.52"><g id="textblocktransform"><svg viewBox="0 0 395.52 63.686825595984935" height="63.686825595984935" width="395.52" id="textblock"><g><svg viewBox="0 0 395.52 63.686825595984935" height="63.686825595984935" width="395.52"><g transform="matrix(1,0,0,1,0,0)"><svg width="395.52" viewBox="1.5 -35.9 239.08 38.5" height="63.686825595984935" data-palette-color="#e1e1e3"><path d="M15.6 0.35L15.6 0.35Q12.7 0.35 10.45-0.6 8.2-1.55 6.93-3.65 5.65-5.75 5.65-9.2L5.65-9.2 5.65-18.8 1.5-18.8 1.5-24.75 5.85-24.75 5.85-31.8 13.85-31.8 13.85-24.75 20.65-24.75 20.65-18.75 13.9-18.75 13.9-9.45Q13.9-7.55 14.83-6.85 15.75-6.15 17.05-6.15L17.05-6.15Q17.85-6.15 18.82-6.33 19.8-6.5 20.35-6.85L20.35-6.85 21.7-0.95Q20.45-0.25 18.82 0.05 17.2 0.35 15.6 0.35ZM33.7 0L25.2 0 25.2-21.2Q26.95-23.2 29.52-24.55 32.1-25.9 35.45-25.9L35.45-25.9Q39.55-25.9 42.65-23.8L42.65-23.8 40.55-18.05Q39.8-18.55 38.77-18.8 37.75-19.05 36.9-19.05L36.9-19.05Q35.85-19.05 34.97-18.78 34.1-18.5 33.7-18.15L33.7-18.15 33.7 0ZM54.15 0L46.15 0 46.15-24.1 54.15-24.1 54.15 0ZM50.15-27.2L50.15-27.2Q48.15-27.2 46.9-28.45 45.65-29.7 45.65-31.55L45.65-31.55Q45.65-33.4 46.9-34.65 48.15-35.9 50.15-35.9L50.15-35.9Q52.2-35.9 53.42-34.65 54.65-33.4 54.65-31.55L54.65-31.55Q54.65-29.7 53.42-28.45 52.2-27.2 50.15-27.2ZM75.44 0L65.79 0 57.14-25.55 65.39-25.55 70.64-7.25 75.39-25.55 83.44-25.55 75.44 0ZM94.44 0L86.44 0 86.44-24.1 94.44-24.1 94.44 0ZM90.44-27.2L90.44-27.2Q88.44-27.2 87.19-28.45 85.94-29.7 85.94-31.55L85.94-31.55Q85.94-33.4 87.19-34.65 88.44-35.9 90.44-35.9L90.44-35.9Q92.49-35.9 93.72-34.65 94.94-33.4 94.94-31.55L94.94-31.55Q94.94-29.7 93.72-28.45 92.49-27.2 90.44-27.2ZM123.99-2.55L117.79 2.6 114.64-1.2Q112.29 0.25 108.79 0.25L108.79 0.25Q104.14 0.25 101.54-2.18 98.94-4.6 98.94-8.55L98.94-8.55Q98.94-12.15 101.14-14.13 103.34-16.1 107.54-16.1L107.54-16.1 113.69-16.1 113.69-16.9Q113.69-18.35 112.39-19.07 111.09-19.8 108.69-19.8L108.69-19.8Q106.84-19.8 105.26-19.38 103.69-18.95 102.24-18.1L102.24-18.1 100.29-23.9Q102.19-24.95 104.54-25.43 106.89-25.9 109.24-25.9L109.24-25.9Q115.04-25.9 118.34-23.43 121.64-20.95 121.64-16.8L121.64-16.8 121.64-5.4 123.99-2.55ZM110.04-5.95L110.04-5.95Q111.94-5.95 112.84-7.18 113.74-8.4 113.74-9.65L113.74-9.65 113.74-11.05 110.04-11.05Q108.49-11.05 107.71-10.4 106.94-9.75 106.94-8.6L106.94-8.6Q106.94-7.35 107.81-6.65 108.69-5.95 110.04-5.95ZM165.38-2.8L159.33 2.45 155.38-1.6 155.38-14.2Q155.38-16.25 154.28-17.35 153.18-18.45 151.08-18.45L151.08-18.45Q150.18-18.45 149.38-18.25 148.58-18.05 147.98-17.7L147.98-17.7 147.98 0 139.98 0 139.98-32.5 147.93-32.5 147.93-24.15Q148.83-24.55 150.53-24.8 152.23-25.05 153.63-25.05L153.63-25.05Q157.93-25.05 160.63-22.38 163.33-19.7 163.33-14.95L163.33-14.95 163.33-5.1 165.38-2.8ZM180.53 0.3L180.53 0.3Q176.53 0.3 173.46-1.3 170.38-2.9 168.63-5.95 166.88-9 166.88-13.3L166.88-13.3Q166.88-19.35 170.26-22.63 173.63-25.9 179.33-25.9L179.33-25.9Q183.33-25.9 185.86-24.38 188.38-22.85 189.58-20.3 190.78-17.75 190.78-14.65L190.78-14.65Q190.78-13.55 190.66-12.38 190.53-11.2 190.28-10.05L190.28-10.05 174.73-10.05Q174.98-7.5 176.86-6.6 178.73-5.7 181.18-5.7L181.18-5.7Q183.23-5.7 184.93-6.18 186.63-6.65 187.68-7.45L187.68-7.45 189.83-2.45Q188.58-1.4 186.11-0.55 183.63 0.3 180.53 0.3ZM174.73-15.1L174.73-15.1 183.78-15.1Q183.78-17.1 182.66-18.48 181.53-19.85 179.28-19.85L179.28-19.85Q177.13-19.85 175.93-18.55 174.73-17.25 174.73-15.1ZM203.78 0L195.28 0 195.28-21.2Q197.03-23.2 199.6-24.55 202.18-25.9 205.53-25.9L205.53-25.9Q209.63-25.9 212.73-23.8L212.73-23.8 210.63-18.05Q209.88-18.55 208.85-18.8 207.83-19.05 206.98-19.05L206.98-19.05Q205.93-19.05 205.05-18.78 204.18-18.5 203.78-18.15L203.78-18.15 203.78 0ZM227.23 0.45L227.23 0.45Q223.08 0.45 220.05-1.2 217.03-2.85 215.38-5.9 213.73-8.95 213.73-13.1L213.73-13.1Q213.73-19.35 217.35-22.73 220.98-26.1 227.13-26.1L227.13-26.1Q233.28-26.1 236.93-22.7 240.58-19.3 240.58-13L240.58-13Q240.58-8.9 238.98-5.88 237.38-2.85 234.38-1.2 231.38 0.45 227.23 0.45ZM227.23-6.25L227.23-6.25Q229.73-6.25 231.05-8.1 232.38-9.95 232.38-13L232.38-13Q232.38-16.25 230.95-17.88 229.53-19.5 227.13-19.5L227.13-19.5Q224.73-19.5 223.3-17.88 221.88-16.25 221.88-13.05L221.88-13.05Q221.88-9.95 223.33-8.1 224.78-6.25 227.23-6.25Z" opacity="1" transform="matrix(1,0,0,1,0,0)" fill="#ffffff" class="wordmark-text-0" data-fill-palette-color="primary" id="text-0"></path></svg></g></svg></g></svg></g></svg></g><g><svg viewBox="0 0 120.96251074864071 166.73210941028856" height="166.73210941028856" width="120.96251074864071"><g><svg xmlns="http://www.w3.org/2000/svg" xmlns:xlink="http://www.w3.org/1999/xlink" version="1.1" x="0" y="0" viewBox="19.1 9.299999999999999 51.800000000000004 71.4" enable-background="new 0 0 90 90" xml:space="preserve" height="166.73210941028856" width="120.96251074864071" class="icon-icon-0" data-fill-palette-color="accent" id="icon-0"><path d="M47.7 33.1h5.2c0.4 0 0.7 0.3 0.7 0.7s-0.3 0.7-0.7 0.7h-5.2c-0.4 0-0.7-0.3-0.7-0.7S47.3 33.1 47.7 33.1zM52.9 35.2h-5.2c-0.4 0-0.7 0.3-0.7 0.7s0.3 0.7 0.7 0.7h5.2c0.4 0 0.7-0.3 0.7-0.7S53.2 35.2 52.9 35.2zM52.9 37.2h-5.2c-0.4 0-0.7 0.3-0.7 0.7 0 0.4 0.3 0.7 0.7 0.7h5.2c0.4 0 0.7-0.3 0.7-0.7C53.5 37.5 53.2 37.2 52.9 37.2zM70.9 62.6L69.3 63c-0.1 0-6.1 2.6-7.7 5.5-0.4 0.8-0.5 1.6-0.2 2.6l0.6 1.5-1.4-0.9c0 0-4.9-3.3-8.1-2.1-0.9 0.4-1.6 1.1-2 2.1l-0.2 0.5L49.8 72c-0.2-0.1-0.3-0.2-0.8-0.7-0.6-0.6-1.7-1.6-3.1-2.6v12H27.5v0h-8.4v-3.9c0.1-3.5 3-6.3 6.4-6.3 0 0 0 0 0.1 0V41.7c0-2.1 0.6-4 1.7-5.7-3.1-1.8-5.4-4.5-6.6-7.8-1.3-3.6-1.1-7.5 0.6-11 2.4-4.9 7.3-7.9 12.9-7.9 2.3 0 4.5 0.5 6.5 1.5 3.5 1.7 6.2 4.7 7.5 8.3 0.8 2.3 1 4.7 0.7 7.1h4.8c1.4 0 2.5 1.1 2.5 2.5v21.3c4.3 2.4 8.6 4.5 12.2 5.6L70 56l-1.5 0.6c0 0-2.5 1-4.5 2.5 1.8 1.1 3.5 2.1 5.1 2.8L70.9 62.6zM56 51.1v2.3c2.3 1.8 4.7 3.5 7.1 5 1.3-1 2.7-1.8 3.7-2.3C63.5 55 59.8 53.2 56 51.1zM48.5 27.5c-0.2 0.9-0.5 1.7-0.9 2.6-0.4 0.9-1 1.8-1.6 2.6v9.1 3.4c2.5 2.2 5.6 4.8 8.8 7.3V28.6c0-0.6-0.5-1.1-1.1-1.1H48.5zM44.6 51.3l-6-10.9c-0.2-0.4-0.5-0.7-0.9-1-1.1-0.5-2.1-0.6-2.9-0.5-0.2 0.1-0.3 0.1-0.5 0.2-1.5 0.8-2.1 2.8-1.2 4.3l6 10.9L44.6 51.3zM43.9 53.7l-2.8 1.6c1.1 1.3 2.8 1.8 4.4 1.3L43.9 53.7zM44.6 43.9v-2.2c0-2.2-0.8-4.3-2.1-6-1.5 1-3.3 1.7-5.1 2 0.7 0.3 1.4 0.7 1.9 1.3C39.8 39.5 41.8 41.4 44.6 43.9zM44.6 34c-0.3 0.3-0.7 0.6-1 0.9 0.4 0.5 0.7 1 1 1.6V34zM23.3 23.9c1.4 0 3.5-0.8 5.1-2-1.9-0.9-3.3-2.1-1.6-2.6 2.8-0.8 2.8-2.2 2.7-3.1-1.3-1.5-3.4-2-4.1-2.2-1.1 1.1-4.6 5.5-3.2 9.5C22.3 23.8 23.1 23.9 23.3 23.9zM28.7 35.2c1.9 0.9 3.9 1.4 5.9 1.4 5 0 9.5-2.8 11.7-7.2 1.5-3.1 1.7-6.6 0.5-9.9-1.2-3.3-3.6-6-6.8-7.5-1.9-0.9-3.9-1.4-5.9-1.4-1.7 0-3.4 0.3-4.9 0.9 0.3 0.1 0.5 0.2 0.5 0.2 5.9 2.9 7.5 5.9 7.9 7 0 0 0 0.1 0 0.1 0.1 0.2 0.1 0.3 0.1 0.3 0.2 0.7 0.4 2.4-1 5.2-2.5 5.1-8 7.6-13.2 6.5C24.8 32.7 26.6 34.2 28.7 35.2zM23.5 77.8h-2.8v1.7h2.8V77.8zM23.7 76.5c0.2-1.6 0.8-3 1.9-4 0.2-0.2 0.4-0.4 0.6-0.5-0.2 0-0.4-0.1-0.6-0.1 0 0 0 0-0.1 0-2.6 0-4.7 2-5 4.6H23.7zM25.6 74.7c-0.3 0.5-0.5 1.1-0.5 1.8h6.8c0 0.2 0 0 0 0h3.2c-0.2-1.9-1.5-3.6-3.2-4.3-0.3-0.1-0.6-0.2-1-0.3-0.3-0.1-0.6-0.1-0.9-0.1 0 0-0.1 0-0.1 0-0.2 0-0.4 0-0.6 0.1-0.6 0.1-1.1 0.3-1.6 0.5-0.3 0.2-0.6 0.4-0.9 0.6C26.4 73.5 25.9 74 25.6 74.7zM44.6 77.8H25v1.7h19.6V77.8zM44.6 67.9c-0.4-0.2-0.7-0.4-1.1-0.6-2.3-1-4.5-1.3-6.6-0.8l-0.6 0.1L36.2 66c0-0.2-2.4-16.7-4.5-22.5-0.1-0.1-0.1-0.3-0.2-0.4 0-0.1-0.1-0.2-0.1-0.3l0-0.1 0-0.1c0 0 0-0.1 0-0.2-0.2-1.8 0.6-3.6 2.3-4.5 0.1 0 0.1 0 0.2-0.1-1.9-0.1-3.7-0.5-5.4-1.3-1 1.5-1.5 3.3-1.5 5.1v29c0.3 0.1 0.6 0.2 0.9 0.3 0.7-0.3 1.4-0.4 2.2-0.4V59.8h1.9v11c2.4 0.8 4.3 3 4.5 5.7h8.1V67.9zM67.7 62.3c-9.1-4.6-21.2-15.1-26.5-20.1l5.4 9.7-1.2 0.6 2.6 4.8-0.8 0.4c-2.8 1.4-6.1 0.5-7.8-1.9l-0.7 0.4L34 47.9c1.5 6.3 2.8 15.1 3.1 17.4 2.2-0.4 4.5-0.1 6.8 1 2.8 1.3 4.9 3.3 5.9 4.3 0 0 0.1 0.1 0.1 0.1 0.6-1 1.3-1.7 2.3-2.1 2.7-1.1 6.2 0.6 8 1.5 0-0.7 0.1-1.5 0.5-2.2C62 65.5 65.7 63 67.7 62.3z" fill="#ffffff" data-fill-palette-color="accent"></path></svg></g></svg></g></svg></g><defs></defs></svg><rect width="395.5199999999999" height="124.07096875713741" fill="none" stroke="none" visibility="hidden"></rect></g></svg></g></svg>